<svg version="1" xmlns="http://www.w3.org/2000/svg" width="85.333" height="85.333" viewBox="0 0 64.000000 64.000000"><path d="M13 18c0 1.6.7 2 3 2h3v11.3c0 7.5-.4 11.7-1.2 12.5-1.9 1.9-4.6 1.4-6.4-1.3-1.1-1.7-2.5-2.5-4.5-2.5-3.4 0-3.4.1-1.4 4.5 3 6.2 11.6 7.5 16.6 2.6l2.9-2.9V16h-6c-5.3 0-6 .2-6 2zM31 32.5V49h10c7.1 0 11-.5 13-1.5 5.5-2.8 5.6-12.3.3-14.8-2.1-1-2.3-1.3-.9-2.2 4.3-3.2 3.7-11.2-1-13.4-1.4-.6-6.7-1.1-11.9-1.1H31v16.5zm18.4-10.4c3.1 4.4-.4 7.6-8.6 7.8L37 30V20h5.4c4.5 0 5.8.4 7 2.1zm.7 12.9c1.3.7 1.9 2.1 1.9 4.5 0 4.3-2 5.5-9.4 5.5H37V34h5.6c3 0 6.4.5 7.5 1z"/></svg>